<?xml version="1.0" encoding="UTF-8"?>
<svg version="1.1" xmlns="http://www.w3.org/2000/svg" width="512" height="512">
<path d="M0 0 C1.46102646 0.00506058 1.46102646 0.00506058 2.9515686 0.01022339 C62.27298093 0.30619191 122.03918414 21.75734492 165.38671875 63.06640625 C167.49309341 65.07357959 169.64111653 66.95168872 171.875 68.8125 C215.31793263 106.79147616 240.45264148 167.03909988 245.875 223.4375 C246.35579674 230.80778681 246.36267138 238.17967429 246.3125 245.5625 C246.30912628 246.53651764 246.30575256 247.51053528 246.30227661 248.5140686 C246.00630809 307.83548093 224.55515508 367.60168414 183.24609375 410.94921875 C181.23892041 413.05559341 179.36081128 415.20361653 177.5 417.4375 C139.52102384 460.88043263 79.27340012 486.01514148 22.875 491.4375 C15.50471319 491.91829674 8.13282571 491.92517138 0.75 491.875 C-0.22401764 491.87162628 -1.19803528 491.86825256 -2.2015686 491.86477661 C-61.52298093 491.56880809 -121.28918414 470.11765508 -164.63671875 428.80859375 C-166.74309341 426.80142041 -168.89111653 424.92331128 -171.125 423.0625 C-214.56793263 385.08352384 -239.70264148 324.83590012 -245.125 268.4375 C-245.60579674 261.06721319 -245.61267138 253.69532571 -245.5625 246.3125 C-245.55912628 245.33848236 -245.55575256 244.36446472 -245.55227661 243.3609314 C-245.25630809 184.03951907 -223.80515508 124.27331586 -182.49609375 80.92578125 C-180.48892041 78.81940659 -178.61081128 76.67138347 -176.75 74.4375 C-133.82662511 25.33882825 -63.9360065 -0.43448914 0 0 Z " fill="#4F46E4" transform="translate(255.125,9.5625)"/>
<path d="M0 0 C9.34104209 5.00538859 12.0690705 16.51531277 15.765625 25.83203125 C16.19535614 26.90633896 16.62508728 27.98064667 17.06784058 29.08750916 C17.96900318 31.3430791 18.86807404 33.59948579 19.76513672 35.85668945 C21.13113336 39.29265138 22.5044915 42.72560106 23.87890625 46.15820312 C24.75824876 48.36180513 25.63716935 50.56557555 26.515625 52.76953125 C26.92193146 53.7853981 27.32823792 54.80126495 27.74685669 55.84791565 C30.02563291 61.59206305 32.11227571 67.35228978 34.0078125 73.234375 C35.07999023 73.22549255 36.15216797 73.21661011 37.25683594 73.2074585 C47.37899178 73.12624411 57.5010812 73.06634792 67.62348938 73.02712631 C72.82709369 73.00628391 78.03043421 72.97802735 83.23388672 72.93261719 C88.25893738 72.88904017 93.28373487 72.86521273 98.30895996 72.85486603 C100.22265608 72.84749593 102.13633891 72.83310385 104.04992676 72.81145477 C106.73801218 72.78226301 109.4250619 72.77842555 112.11328125 72.78027344 C112.89803329 72.76589233 113.68278534 72.75151123 114.49131775 72.73669434 C120.03660563 72.77773129 124.41390076 74.04849233 129.0078125 77.234375 C132.15929882 80.73924836 133.34213796 83.94083228 133.1953125 88.671875 C132.52433954 92.25296416 131.45531071 94.25729174 129.00694656 96.93782139 C128.3736526 97.63202722 127.74035863 98.32623305 127.08787394 99.04147542 C123.39506624 102.93460872 119.63190144 106.75105422 115.83416748 110.54173279 C114.48079879 111.89849982 114.48079879 111.89849982 113.10008931 113.28267628 C110.61558382 115.77325519 108.12800824 118.26074709 105.63987255 120.74769866 C102.94965307 123.43771303 100.26230381 126.13059235 97.57455444 128.82307434 C92.3181753 134.08773366 87.05904556 139.34963677 81.79880425 144.61043691 C77.52530559 148.88441153 73.25259922 153.15917659 68.98044586 157.43449593 C56.86502941 169.55870802 44.74752979 181.68083252 32.62733921 193.8002721 C31.97494618 194.45262518 31.32255315 195.10497826 30.65039062 195.77709961 C29.99720082 196.43024854 29.34401101 197.08339746 28.67102757 197.75633878 C18.06431144 208.36264768 7.46260368 218.97394725 -3.13686743 229.58749603 C-14.02326234 240.48823566 -24.91336195 251.38526194 -35.80736423 262.27839905 C-41.92255954 268.39326197 -48.03619618 274.50966498 -54.14585114 280.63006401 C-59.3419902 285.83528253 -64.54154469 291.03705857 -69.74562982 296.23433327 C-72.40168936 298.88711601 -75.05608613 301.54150956 -77.7061882 304.2002449 C-80.57424209 307.07754639 -83.44992264 309.94709959 -86.32647705 312.81590271 C-87.16897231 313.66354154 -88.01146758 314.51118036 -88.879493 315.38450521 C-89.64749628 316.1479097 -90.41549956 316.91131418 -91.20677567 317.69785213 C-91.87014978 318.36144361 -92.53352389 319.02503509 -93.21700025 319.70873541 C-96.64833335 322.65770749 -100.39437823 322.57172455 -104.70703125 322.515625 C-109.28236074 321.95250752 -111.96799088 319.42927106 -114.8671875 316.046875 C-116.51017866 311.93939711 -116.79592065 308.58448701 -115.9921875 304.234375 C-112.4636379 297.99581753 -106.95105462 292.91287124 -101.90567017 287.90734863 C-100.70966661 286.7087818 -100.70966661 286.7087818 -99.48950136 285.48600149 C-96.83187049 282.82509142 -94.16718274 280.171366 -91.50244141 277.51757812 C-89.58926264 275.60607958 -87.67759789 273.69306944 -85.76586914 271.78012085 C-81.65710757 267.67031366 -77.54471775 263.56416663 -73.42979813 259.46052551 C-67.48041783 253.52744111 -61.53660751 247.58880208 -55.59411578 241.64881915 C-45.95125787 232.01033194 -36.30394775 222.37631393 -26.65380859 212.74511719 C-17.28296788 203.39265147 -7.91424269 194.03807485 1.45166016 184.68066406 C2.02956096 184.10328871 2.60746176 183.52591335 3.20287471 182.93104178 C6.10219517 180.0343315 9.00147425 177.13757981 11.90073276 174.24080753 C35.93001414 150.23223918 59.96653296 126.23092882 84.0078125 102.234375 C83.22155991 102.23517059 82.43530731 102.23596619 81.62522888 102.23678589 C74.19536869 102.23899876 66.76641778 102.21246959 59.3368063 102.1540966 C55.51758556 102.12509162 51.69897629 102.10698834 47.87963867 102.11425781 C44.1898078 102.12087203 40.50118294 102.09825058 36.81160164 102.05582047 C35.40793212 102.0447259 34.00413974 102.04395625 32.60046196 102.05395126 C20.23374586 102.13068359 20.23374586 102.13068359 15.67982197 98.31961155 C13.56087785 96.09939616 11.91260526 93.92732422 10.77612305 91.05249023 C10.46277512 90.28827255 10.14942719 89.52405487 9.82658386 88.73667908 C9.5190065 87.93025467 9.21142914 87.12383026 8.89453125 86.29296875 C8.38379814 85.0250222 8.38379814 85.0250222 7.86274719 83.73146057 C6.7883086 81.05191414 5.74151354 78.36255445 4.6953125 75.671875 C3.97511741 73.8619089 3.25312801 72.05265569 2.52929688 70.24414062 C0.92293034 66.22042932 -0.66437471 62.1897061 -2.24038696 58.15402222 C-3.14561492 55.84261349 -4.06554714 53.53727675 -4.9921875 51.234375 C-8.11838645 57.10688718 -10.82230286 63.0990224 -13.33203125 69.25390625 C-13.62413483 69.96545868 -13.9162384 70.67701111 -14.2171936 71.41012573 C-15.43207062 74.37207739 -16.64505316 77.33440424 -17.83276367 80.30737305 C-18.71308118 82.50446399 -19.61442884 84.69192986 -20.51953125 86.87890625 C-20.90890114 87.87589287 -20.90890114 87.87589287 -21.30613708 88.89302063 C-23.37929423 93.83049086 -25.72041815 96.21039625 -29.9921875 99.234375 C-32.75388894 100.15494215 -34.51397605 100.38237649 -37.37182617 100.43969727 C-38.25251266 100.45964249 -39.13319916 100.47958771 -40.04057312 100.50013733 C-40.98753555 100.51684982 -41.93449799 100.53356232 -42.91015625 100.55078125 C-43.88253738 100.57156235 -44.85491852 100.59234344 -45.85676575 100.61375427 C-48.96433415 100.67916248 -52.07198735 100.73809429 -55.1796875 100.796875 C-57.28581608 100.84006851 -59.39193606 100.88368307 -61.49804688 100.92773438 C-66.66267341 101.03483499 -71.82738528 101.13612719 -76.9921875 101.234375 C-75.92291016 102.10449219 -75.92291016 102.10449219 -74.83203125 102.9921875 C-69.49602337 107.3443016 -64.19397317 111.72285503 -58.9921875 116.234375 C-54.74501441 119.90741597 -50.44972887 123.48763426 -46.0546875 126.984375 C-34.62682893 136.40052474 -34.62682893 136.40052474 -33.4296875 141.74609375 C-33.09730881 148.69488572 -35.59773368 152.58196519 -40.24707031 157.73217773 C-41.05499023 158.53598877 -41.86291016 159.3397998 -42.6953125 160.16796875 C-43.59378906 161.06451172 -44.49226563 161.96105469 -45.41796875 162.88476562 C-46.34996094 163.80451172 -47.28195313 164.72425781 -48.2421875 165.671875 C-49.15871094 166.58775391 -50.07523437 167.50363281 -51.01953125 168.44726562 C-54.86552383 172.26856923 -58.70451579 176.0494862 -62.8359375 179.5625 C-69.62694183 185.39038195 -75.75755197 191.97793718 -82.02148438 198.35961914 C-83.74171021 200.11002021 -85.46808562 201.85416715 -87.1953125 203.59765625 C-87.71828918 204.13409256 -88.24126587 204.67052887 -88.78009033 205.22322083 C-92.9157125 209.38710513 -95.91163735 211.51164555 -101.8046875 211.734375 C-106.70099678 211.64758665 -109.12343999 210.26327888 -112.6171875 206.9375 C-115.93975094 202.8220521 -116.53876943 199.51800037 -115.9921875 194.234375 C-112.82130105 188.56121204 -108.30810108 184.27698508 -103.71875 179.73046875 C-102.91738617 178.92956314 -102.11602234 178.12865753 -101.29037476 177.30348206 C-99.59992297 175.61604236 -97.90705041 173.93102471 -96.21191406 172.24829102 C-93.62769738 169.68231072 -91.0515525 167.10843901 -88.4765625 164.53320312 C-86.82859553 162.89015292 -85.18017305 161.24755945 -83.53125 159.60546875 C-82.7654361 158.84076767 -81.99962219 158.07606659 -81.21060181 157.28819275 C-78.07145607 154.17657956 -74.94909685 151.129673 -71.52099609 148.33618164 C-68.9506704 146.48634326 -68.9506704 146.48634326 -67.9921875 144.234375 C-68.51683594 144.01910156 -69.04148438 143.80382812 -69.58203125 143.58203125 C-72.93755856 141.70576395 -75.68302063 139.19944235 -78.5546875 136.671875 C-79.81553857 135.57582397 -81.07726583 134.48078011 -82.33984375 133.38671875 C-82.96133301 132.84772949 -83.58282227 132.30874023 -84.22314453 131.75341797 C-86.61099069 129.70302067 -89.04633535 127.71504279 -91.4921875 125.734375 C-95.72011399 122.3022935 -99.86743599 118.78883042 -103.9921875 115.234375 C-110.77069212 109.39488801 -117.60542289 103.62299172 -124.6875 98.15234375 C-128.10836007 95.3054924 -129.58299384 92.47675628 -130.3828125 88.09375 C-130.72304703 83.54697949 -130.16925834 80.85382185 -127.2421875 77.296875 C-124.02705424 73.86252811 -121.41369588 72.35330977 -116.66387939 71.9559021 C-115.32716417 71.93245986 -113.99023447 71.91973157 -112.65332031 71.91552734 C-111.92121841 71.90548172 -111.18911652 71.8954361 -110.43482971 71.88508606 C-108.02166509 71.8542637 -105.60861137 71.83722176 -103.1953125 71.8203125 C-101.51950121 71.80160007 -99.84369932 71.7820266 -98.16790771 71.7616272 C-93.76212108 71.71030785 -89.3563039 71.6706811 -84.95037842 71.63348389 C-80.45251917 71.593443 -75.95478698 71.54235104 -71.45703125 71.4921875 C-62.63550592 71.39543057 -53.81390885 71.31102503 -44.9921875 71.234375 C-43.29092683 67.18250825 -41.59014003 63.130443 -39.88981819 59.07818222 C-39.28902405 57.64640169 -38.68815715 56.21465168 -38.08721733 54.78293228 C-34.90549257 47.20183119 -31.72826551 39.61928286 -28.59732056 32.01702881 C-27.3853963 29.07952635 -26.16047045 26.14756921 -24.93237305 23.21679688 C-24.32887093 21.76772031 -23.73155142 20.31605826 -23.1394043 18.86230469 C-22.24246173 16.66445125 -21.32473099 14.47633717 -20.40234375 12.2890625 C-20.14598648 11.64653534 -19.88962921 11.00400818 -19.62550354 10.3420105 C-17.56195072 5.53883214 -15.15585827 3.2042756 -10.9921875 0.234375 C-7.0144095 -1.091551 -4.01073089 -1.54137893 0 0 Z " fill="#FDFDFE" transform="translate(256.9921875,88.765625)"/>
<path d="M0 0 C3.89398123 1.32248419 5.65313142 2.60749082 8.375 5.6875 C10.30840984 9.6286816 10.87938774 12.69020785 10 17 C7.56680834 23.4177208 2.81694347 27.60474916 -1.98193359 32.37011719 C-2.90092941 33.29436996 -3.81992523 34.21862274 -4.76676941 35.17088318 C-7.27846618 37.69621356 -9.79950811 40.21201369 -12.32278776 42.72576427 C-14.96616495 45.36152662 -17.60219263 48.00462301 -20.2394104 50.64654541 C-24.66757178 55.08015807 -29.10200618 59.5074226 -33.54003906 63.93115234 C-38.66769713 69.04247505 -43.78444477 74.16452903 -48.89567888 79.29227138 C-53.28940994 83.69962316 -57.68896882 88.10109327 -62.09343779 92.49771428 C-64.72188864 95.12149315 -67.34828251 97.74724482 -69.96943283 100.37831879 C-72.89084072 103.31001417 -75.82437073 106.22927917 -78.75927734 109.14746094 C-79.62490799 110.01916428 -80.49053864 110.89086761 -81.38240051 111.78898621 C-82.18428299 112.58240921 -82.98616547 113.37583221 -83.81234741 114.19329834 C-84.50440466 114.88422451 -85.19646191 115.57515068 -85.90949059 116.28701401 C-89.24403356 119.01937453 -92.18368418 119.91094736 -96.4375 120.375 C-101.52689174 119.83927455 -104.47058172 117.74037253 -107.8125 113.9375 C-110.23959201 109.97750777 -110.38595477 106.55426632 -110 102 C-106.71144103 96.00848513 -101.77804375 91.50366673 -96.96459961 86.72167969 C-96.05199875 85.80718048 -95.13939789 84.89268127 -94.19914246 83.95046997 C-91.70794448 81.45444646 -89.21057733 78.96468233 -86.71188426 76.47616482 C-84.09413838 73.86723242 -81.48169603 71.25299904 -78.86854553 68.63946533 C-74.48306834 64.25492298 -70.09374503 59.87426147 -65.7019043 55.49609375 C-60.62480698 50.43474452 -55.55297814 45.36816474 -50.48411554 40.29856944 C-45.08274389 34.8965225 -39.67757315 29.49828924 -34.27127385 24.10117435 C-32.71477197 22.54680332 -31.15898157 20.99172317 -29.60334587 19.43648529 C-26.70722759 16.54155763 -23.80687219 13.65091203 -20.90600586 10.76074219 C-20.04410645 9.89838959 -19.18220703 9.03603699 -18.29418945 8.14755249 C-17.50491562 7.36254364 -16.71564178 6.57753479 -15.90245056 5.76873779 C-15.21722289 5.08518597 -14.53199522 4.40163414 -13.82600307 3.69736862 C-9.31474133 -0.49609317 -5.88006499 -0.63432208 0 0 Z " fill="#FDFDFE" transform="translate(351,240)"/>
<path d="M0 0 C4.38253554 2.19126777 7.16669816 4.41674539 9 9 C9.79249577 14.28330515 9.508344 17.69509527 6.4250927 22.17765045 C3.29136101 26.18493681 -0.40677869 29.69183801 -4.00366211 33.27832031 C-4.91305038 34.19281952 -5.82243866 35.10731873 -6.75938416 36.04953003 C-9.24225624 38.54573641 -11.73143692 41.03555804 -14.22225261 43.52383518 C-16.30417548 45.60468526 -18.38310737 47.68851112 -20.46210009 49.77228808 C-25.36619382 54.6874562 -30.27557118 59.59730243 -35.18823242 64.50390625 C-40.25253011 69.56215552 -45.30756105 74.62953286 -50.35818666 79.70143056 C-54.70109508 84.06195483 -59.04978845 88.41665 -63.40314108 92.76674724 C-66.00053632 95.36233057 -68.59566272 97.96008362 -71.18519402 100.56351471 C-74.07070046 103.46393089 -76.96817103 106.35209999 -79.86694336 109.23925781 C-80.72165222 110.10161041 -81.57636108 110.96396301 -82.45697021 111.85244751 C-83.64500496 113.02996078 -83.64500496 113.02996078 -84.85704041 114.23126221 C-85.54042449 114.91481403 -86.22380857 115.59836586 -86.92790127 116.30263138 C-90.64925622 119.35099535 -94.17840223 120.3707512 -98.9375 120.0625 C-102.95528732 119.5767675 -104.89257249 118.67542442 -107.5625 115.625 C-110.85699614 111.23856038 -111.4626162 107.45887114 -111 102 C-107.71199334 96.01357265 -102.78652844 91.50507008 -97.98046875 86.72167969 C-97.06947418 85.80718048 -96.15847961 84.89268127 -95.21987915 83.95046997 C-92.73284397 81.45435503 -90.23957 78.96456213 -87.74481583 76.47616482 C-85.13050369 73.86693253 -82.5210932 71.25280551 -79.91088867 68.63946533 C-75.52979442 64.25473851 -71.14451339 59.87423224 -66.75683594 55.49609375 C-61.68614119 50.43629577 -56.62270981 45.36931487 -51.56296444 40.29856944 C-47.21324759 35.93977572 -42.85964427 31.58489268 -38.50277042 27.23325276 C-35.90279552 24.6363936 -33.30418545 22.0382074 -30.70907593 19.43648529 C-27.81826301 16.53882045 -24.91934463 13.64939985 -22.01953125 10.76074219 C-21.16122711 9.89838959 -20.30292297 9.03603699 -19.41860962 8.14755249 C-18.62796112 7.36254364 -17.83731262 6.57753479 -17.02270508 5.76873779 C-16.3383992 5.08518597 -15.65409332 4.40163414 -14.9490509 3.69736862 C-10.34748119 -0.30999723 -5.91967598 -0.83245443 0 0 Z " fill="#FDFDFE" transform="translate(247,236)"/>
</svg>
